<svg width="32" height="32" viewBox="0 0 32 32" fill="none" xmlns="http://www.w3.org/2000/svg">
<path d="M31.5104 14.3415H4.21523L29.207 5.28423C29.4551 5.19437 29.5681 4.95475 29.4592 4.74916L27.0811 0.24332C27.0289 0.144612 26.9316 0.0670077 26.8104 0.0278649C26.6892 -0.0112778 26.5549 -0.00923559 26.4358 0.034332L0.293975 9.50824C0.0458929 9.59776 -0.067469 9.83738 0.0413749 10.043L2.41951 14.5491C2.43923 14.5879 2.46839 14.6223 2.50125 14.6533C2.49303 14.6839 2.48687 14.7149 2.48687 14.7476V31.5946C2.48687 31.8186 2.70661 32 2.97646 32H31.5104C31.7807 32 32 31.8186 32 31.5946V14.7476C32 14.5229 31.7807 14.3415 31.5104 14.3415ZM31.02 18.8538H3.46729V15.1536H31.02V18.8538ZM11.1989 26.585V31.1879H8.69467V26.585H11.1989ZM3.46729 25.7732V19.6663H11.1985V25.7729L3.46729 25.7732ZM12.1789 19.6663H21.5814V23.4716C21.5814 23.696 21.8007 23.8774 22.0718 23.8774H31.02V25.7729H12.1789V19.6663ZM22.561 23.0659V19.6666H31.0204V23.0659H22.561ZM9.5264 7.04871C9.52928 8.54192 9.52846 10.0355 9.52846 11.5294L5.85898 12.8595C5.8561 11.3656 5.8561 9.87244 5.8561 8.3782L9.5264 7.04871ZM16.5314 4.50988C16.5339 6.00343 16.5339 7.49698 16.5339 8.99019L12.8628 10.3207C12.8611 8.82681 12.8615 7.3336 12.8615 5.83971L16.5314 4.50988ZM23.5365 1.97105C23.5389 3.4646 23.5385 4.95815 23.5385 6.45204L19.8686 7.78187C19.8658 6.28832 19.8658 4.79477 19.8658 3.30088L23.5365 1.97105ZM28.365 4.70253L26.8716 5.24372C26.8704 4.11947 26.8704 2.99523 26.8691 1.87064L28.365 4.70253ZM1.13515 10.0896L2.52178 9.58686C2.52548 10.6298 2.5263 11.673 2.52178 12.7162L1.13515 10.0896ZM3.46729 26.585H7.71384V31.1879H3.46729V26.585ZM12.1789 31.1879V26.585H31.02V31.1879H12.1789Z" fill="#D72323"/>
</svg>
