<svg width="133" height="26" viewBox="0 0 133 26" fill="none" xmlns="http://www.w3.org/2000/svg">
<path d="M7.56883 0.937658C7.01204 0.985725 6.49862 1.0819 6.02884 1.22614C5.55906 1.37037 5.14148 1.59874 4.77609 1.91127C4.41071 2.2238 4.12362 2.63246 3.91483 3.1373C3.70604 3.64213 3.60164 4.26715 3.60164 5.0124C3.60164 6.02206 3.59293 7.23006 3.57555 8.63639C3.55816 10.0427 3.54945 11.491 3.54945 12.9816C3.54945 14.4961 3.55816 15.9624 3.57555 17.3808C3.59293 18.7993 3.60164 20.0132 3.60164 21.0229C3.60164 22.5374 3.97575 23.6132 4.7239 24.2502C5.47205 24.8872 6.40289 25.2058 7.51648 25.2058C8.42122 25.2058 9.239 25.1217 9.96977 24.9534C10.7005 24.7851 11.3269 24.5086 11.8489 24.124C12.3709 23.7393 12.7711 23.2285 13.0494 22.5914C13.3278 21.9543 13.467 21.167 13.467 20.2295V19.2559H14.6676V21.0949C14.6676 22.6575 14.0499 23.8715 12.8145 24.7369C11.5792 25.6024 9.83066 26.0231 7.56867 25.999C6.4899 25.999 5.40247 25.8127 4.30631 25.4401C3.21016 25.0675 2.31408 24.5206 1.61813 23.7994C1.16573 23.3426 0.826447 22.8198 0.600274 22.2308C0.374101 21.6418 0.217508 20.9206 0.130494 20.0672C0.0434808 19.2138 0 18.2101 0 17.0562V12.9815C0 10.89 0.0173825 9.15305 0.0521978 7.77088C0.0870132 6.38872 0.226225 5.24076 0.469832 4.32719C0.609043 3.55793 0.965711 2.87882 1.53989 2.28982C2.11406 1.70082 2.80135 1.22606 3.6017 0.865466C4.88926 0.312564 6.21158 0.0360957 7.56873 0.0360957H8.0646L8.56048 0.0721553L8.45609 3.52489e-05C8.66488 0.0481027 8.80409 0.0721553 8.87367 0.0721553C9.67402 0.192342 10.3178 0.33658 10.8049 0.50487L12.0577 0.937586C12.3361 1.00971 12.5797 1.00971 12.7884 0.937586C13.206 0.769296 13.4148 0.456767 13.4148 0C13.4844 0 13.5366 0.00602115 13.5714 0.0180294C13.6062 0.0300376 13.641 0.0360596 13.6759 0.0360596H14.6676V6.34649H13.5193C13.4845 5.96184 13.4323 5.56519 13.3627 5.15653C13.2931 4.81998 13.1974 4.44738 13.0756 4.03871C12.9539 3.63005 12.7538 3.23339 12.4754 2.84875C12.4058 2.75258 12.258 2.58428 12.0318 2.34387C11.8056 2.10347 11.4924 1.86908 11.0922 1.64071C10.692 1.41235 10.1962 1.22004 9.60459 1.06379C9.01304 0.907548 8.33441 0.865538 7.56883 0.937658ZM22.0798 23.8716C22.0798 24.2081 22.1581 24.4545 22.3147 24.6108C22.4713 24.767 22.6192 24.8572 22.7584 24.8812C22.9323 24.9533 23.1585 24.9533 23.4369 24.8812V25.8188H17.121V24.8812C17.3993 24.9533 17.6429 24.9533 17.8517 24.8812C17.9561 24.8572 18.0866 24.767 18.2432 24.6108C18.3998 24.4545 18.4781 24.2081 18.4781 23.8716V1.98339C18.4781 1.62279 18.3998 1.36435 18.2432 1.2081C18.0866 1.05186 17.9561 0.949702 17.8517 0.901634C17.6429 0.853567 17.3993 0.853567 17.121 0.901634V0.0362032H23.4369V0.901634C23.1585 0.853567 22.9323 0.853567 22.7584 0.901634C22.6192 0.949702 22.4713 1.05186 22.3147 1.2081C22.1581 1.36435 22.0798 1.62279 22.0798 1.98339V23.8716ZM38.8875 0.0722266L43.4809 0.072157V0.973648C43.1677 0.92558 42.9067 0.92558 42.6979 0.973648C42.5239 1.02172 42.3586 1.12387 42.202 1.28012C42.0454 1.43636 41.9671 1.68276 41.9671 2.0193V25.8187H37.5825L28.9177 5.12043V23.8714C28.9177 24.208 28.996 24.4484 29.1526 24.5926C29.3092 24.7369 29.4745 24.833 29.6485 24.8811C29.8573 24.9292 30.1183 24.9292 30.4314 24.8811V25.8187H25.838V24.8811C26.1164 24.9292 26.36 24.9292 26.5688 24.8811C26.7428 24.833 26.9168 24.7369 27.0907 24.5926C27.2647 24.4484 27.3517 24.208 27.3517 23.8714V2.0193C27.3517 1.68276 27.2647 1.43636 27.0907 1.28012C26.9168 1.12387 26.7428 1.02172 26.5688 0.973648C26.36 0.92558 26.1164 0.92558 25.838 0.973648V0.072157H31.1622L40.4012 21.9964V2.01938C40.4012 1.68283 40.3142 1.43644 40.1402 1.28019C39.9662 1.12394 39.7923 1.02179 39.6183 0.973719C39.4095 0.925651 39.1659 0.925651 38.8875 0.973719L38.8875 0.0722266ZM61.3325 22.0325V25.8186H46.7693V24.8811C47.0477 24.9532 47.2565 24.9532 47.3957 24.8811C47.5697 24.857 47.735 24.7669 47.8916 24.6106C48.0482 24.4544 48.1265 24.208 48.1265 23.8714V1.98324C48.1265 1.62265 48.0482 1.36421 47.8916 1.20796C47.735 1.05171 47.5697 0.949558 47.3957 0.901491C47.2565 0.853423 47.0477 0.853423 46.7693 0.901491V0.0360596H61.3325V3.82232H59.9754C59.9405 3.26942 59.8362 2.77659 59.6622 2.34387C59.4882 1.98328 59.2011 1.64071 58.8009 1.31618C58.4007 0.991639 57.8526 0.829371 57.1567 0.829371H51.7281V12.5127H55.382C55.8344 12.5127 56.1824 12.4286 56.426 12.2603C56.6696 12.092 56.8435 11.8997 56.9479 11.6833C57.0872 11.4189 57.1567 11.1184 57.1567 10.7819H58.3573V15.2172H57.1567C57.1567 14.8807 57.0872 14.5922 56.9479 14.3518C56.8435 14.1114 56.6696 13.901 56.426 13.7207C56.1824 13.5404 55.8344 13.4503 55.382 13.4503H51.7281V24.9533H57.1567C57.8526 24.9533 58.4007 24.8091 58.8009 24.5206C59.2011 24.2321 59.4882 23.8956 59.6622 23.5109C59.8362 23.0782 59.9405 22.5854 59.9754 22.0325L61.3325 22.0325ZM84.7171 0.901598C84.4387 0.853531 84.1952 0.853567 83.9864 0.901633C83.8472 0.949701 83.708 1.05186 83.5687 1.2081C83.4295 1.36435 83.36 1.62279 83.36 1.98339V23.8716C83.36 24.2081 83.4295 24.4545 83.5687 24.6108C83.708 24.767 83.8472 24.8572 83.9864 24.8812C84.1952 24.9533 84.4388 24.9533 84.7171 24.8812V25.8188H78.4012V24.8812C78.6796 24.9533 78.8884 24.9533 79.0276 24.8812C79.2016 24.8572 79.3755 24.767 79.5495 24.6108C79.7235 24.4545 79.8105 24.2081 79.8105 23.8716V4.07484C78.9058 6.57504 78.088 8.82281 77.3572 10.818C77.044 11.6594 76.7482 12.4887 76.4699 13.3061C76.1915 14.1235 75.9305 14.8567 75.6869 15.5057C75.4433 16.1548 75.2519 16.6837 75.1127 17.0924C74.9734 17.501 74.9039 17.7174 74.9039 17.7414H72.7116C72.5028 17.1885 72.2592 16.5575 71.9808 15.8483C71.7024 15.1391 71.424 14.4059 71.1457 13.6487C70.8673 12.8914 70.5889 12.1402 70.3106 11.3949C70.0322 10.6497 69.7712 9.9165 69.5276 9.19531C68.9012 7.51252 68.2749 5.80571 67.6485 4.07484V23.8355C67.6485 24.1721 67.7094 24.4185 67.8312 24.5747C67.953 24.731 68.1008 24.8211 68.2748 24.8452C68.4836 24.9173 68.7098 24.9173 68.9534 24.8452V25.8188H64.5166V24.8452C64.7949 24.9173 65.0037 24.9173 65.1429 24.8452C65.3169 24.8211 65.4822 24.731 65.6388 24.5747C65.7954 24.4185 65.8737 24.1721 65.8737 23.8355V1.98339C65.8737 1.62279 65.7954 1.36435 65.6388 1.2081C65.4822 1.05186 65.3169 0.949701 65.1429 0.901633C65.0037 0.853566 64.7949 0.853566 64.5166 0.901633V0.0362023H69.6319L74.8517 13.7028L79.8105 0.0362023H84.7171V0.901598ZM92.1814 23.8716C92.1814 24.2081 92.2597 24.4545 92.4163 24.6108C92.5729 24.767 92.7207 24.8572 92.8599 24.8812C93.0339 24.9533 93.2601 24.9533 93.5385 24.8812V25.8188H87.2225V24.8812C87.5009 24.9533 87.7445 24.9533 87.9533 24.8812C88.0577 24.8572 88.1882 24.767 88.3448 24.6108C88.5014 24.4545 88.5797 24.2081 88.5797 23.8716V1.98339C88.5797 1.62279 88.5014 1.36435 88.3448 1.2081C88.1882 1.05186 88.0577 0.949702 87.9533 0.901634C87.7445 0.853567 87.5009 0.853567 87.2225 0.901634V0.0362032H93.5385V0.901634C93.2601 0.853567 93.0339 0.853567 92.8599 0.901634C92.7207 0.949702 92.5729 1.05186 92.4163 1.2081C92.2597 1.36435 92.1814 1.62279 92.1814 1.98339V23.8716ZM108.989 0.0722266L113.582 0.072157V0.973648C113.269 0.92558 113.008 0.92558 112.799 0.973648C112.625 1.02172 112.46 1.12387 112.304 1.28012C112.147 1.43636 112.069 1.68276 112.069 2.0193V25.8187H107.684L99.0193 5.12043V23.8714C99.0193 24.208 99.0976 24.4484 99.2542 24.5926C99.4108 24.7369 99.5761 24.833 99.75 24.8811C99.9588 24.9292 100.22 24.9292 100.533 24.8811V25.8187H95.9396V24.8811C96.218 24.9292 96.4616 24.9292 96.6704 24.8811C96.8443 24.833 97.0183 24.7369 97.1923 24.5926C97.3663 24.4484 97.4533 24.208 97.4533 23.8714V2.0193C97.4533 1.68276 97.3663 1.43636 97.1923 1.28012C97.0183 1.12387 96.8443 1.02172 96.6704 0.973648C96.4616 0.92558 96.218 0.92558 95.9396 0.973648V0.072157H101.264L110.503 21.9964V2.01938C110.503 1.68283 110.416 1.43644 110.242 1.28019C110.068 1.12394 109.894 1.02179 109.72 0.973719C109.511 0.925651 109.267 0.925651 108.989 0.973719L108.989 0.0722266ZM133 5.33693V20.5902C133 21.2392 132.835 21.8763 132.504 22.5013C132.174 23.1263 131.678 23.6853 131.016 24.1781C130.355 24.6709 129.529 25.0676 128.537 25.3681C127.545 25.6685 126.388 25.8188 125.066 25.8188H124.622L123.657 25.8368L122.378 25.8549H120.942H117.08V24.9173C117.323 24.9654 117.549 24.9654 117.758 24.9173C117.932 24.8692 118.089 24.7731 118.228 24.6288C118.367 24.4846 118.437 24.2442 118.437 23.9076V2.05551C118.437 1.71896 118.367 1.47257 118.228 1.31632C118.089 1.16007 117.932 1.05792 117.758 1.00985C117.549 0.961782 117.323 0.961782 117.08 1.00985V0.108358H125.066C126.388 0.108358 127.545 0.258619 128.537 0.559104C129.529 0.859589 130.355 1.25625 131.016 1.74907C131.678 2.2419 132.174 2.80082 132.504 3.42584C132.835 4.05087 133 4.68786 133 5.33693ZM122.038 1.04584L122.038 24.8452H125.17C125.762 24.7971 126.371 24.6829 126.997 24.5026C127.624 24.3223 128.163 24.0278 128.615 23.6192C129.172 23.0663 129.468 22.309 129.503 21.3474V4.54362C129.503 4.1109 129.416 3.6902 129.242 3.28153C128.998 2.7767 128.659 2.37402 128.224 2.07354C127.789 1.77305 127.31 1.54469 126.788 1.38844C126.266 1.23219 125.736 1.13602 125.196 1.09996C124.657 1.0639 124.179 1.04587 123.761 1.04587L122.038 1.04584Z" fill="#D72323"/>
</svg>
